# xmcd
#
# Track frame offsets: 
#        150
#        20710
#        37887
#        54832
#        85175
#        107922
#        179002
#
# Disc length: 3626 seconds
#
# Revision: 2
# Processed by: cddbd v1.5.2PL0 Copyright (c) Steve Scherf et al.
# Submitted via: ExactAudioCopy v0.95b4
#
DISCID=530e2807
DTITLE=Allman Brothers Band - American University 12-13-70
DYEAR=2002
DGENRE=Blues-Rock
TTITLE0=Statesboro Blues
TTITLE1=Trouble No More
TTITLE2=Don't Keep Me Wonderin'
TTITLE3=Leave My Blues at Home
TTITLE4=Stormy Monday
TTITLE5=You Don't Love Me
TTITLE6=Whippin' Post
EXTD=Gregg Allman: vocals, Hammond B3 organ\nDuane Allman: lead and slid
EXTD=e guitar\nDickey Betts: lead guitar\nBerry Oakley: bass guitar\nJ
EXTD=aimoe: drums, percussion\nButch Trucks: drums, tympani\nRecorded 
EXTD=live at Leonard Gym, American University, Washington US-DC, Sun 1
EXTD=970-12-13, during two sets starting 19:30 (tracks 6-7) and 22:30 
EXTD=(1-5).\nNote: The tape ran out during Duane's solo on "Stormy Wea
EXTD=ther" (5).\nRecording produced by the Allman Brothers Band.\nLive
EXTD=mix: Mike Callahan\nCD produced by Kirk West and Bert Holman.\nTap
EXTD=e archivist: Kirk West\nTape recovery: Larry Brantley\nCD masteri
EXTD=ng: Vlado Meller, Sony Music Studios, New York US-NY\nAudio resto
EXTD=ration and digital surgery: Robb Navrides\nCD: Allman Brothers #1 (
EXTD=2002) - Sanctuary 84757 (2005-07-12), UPC 060768475724.
EXTT0=(Willie McTell)
EXTT1=(McKinley Morganfield [Muddy Waters])
EXTT2=(Gregg Allman)
EXTT3=(Gregg Allman)
EXTT4=(Aaron "T-Bone" Walker)
EXTT5=(Willie Cobbs)
EXTT6=(Gregg Allman)
PLAYORDER=
